# xmcd
# Copyright (C) 1995-1998 Ti Kan
#
# Track frame offsets:
#       150
#       34114
#       53420
#       68172
#       84879
#       102326
#       118910
#       140086
#       160316
#
# Disc length: 2378 seconds
#
# Revision: 1
# Processed by: cddbd v1.5.2PL0 Copyright (c) Steve Scherf et al.
# Submitted via: jack 3.1.1
#
DISCID=74094809
DTITLE=Laura Gibson - Beasts Of Seasons
DYEAR=2009
DGENRE=Alternative
TTITLE0=Shadows On Parade
TTITLE1=Come By Storm
TTITLE2=Spritual
TTITLE3=Postures Bent
TTITLE4=Funeral Song
TTITLE5=Where Have All Your Good Words Gone
TTITLE6=Sleeper
TTITLE7=Sweet Deception
TTITLE8=Glory
EXTD=
EXTT0=
EXTT1=
EXTT2=
EXTT3=
EXTT4=
EXTT5=
EXTT6=
EXTT7=
EXTT8=
PLAYORDER=
